# xmcd
#
# Track frame offsets:
#	150
#	14431
#	29233
#	43887
#	58915
#	75517
#	91298
#	104448
#	118680
#	131258
#	150508
#	165633
#	179243
#	193070
#	204769
#
# Disc length: 2970 seconds
#
# Revision: 0
# Processed by: cddbd v1.5.2PL0 Copyright (c) Steve Scherf et al.
# Submitted via: EasyCDDAExtractor 2010.6.0.0
#
DISCID=ce0b980f
DTITLE=Leonardo - Alucinação
DYEAR=2010
DGENRE=Sertanejo
TTITLE0=Alucinação
TTITLE1=Zuar e Beber
TTITLE2=Eu e a Lua
TTITLE3=O que é, O Que É
TTITLE4=Hoje
TTITLE5=Quero Te Amar
TTITLE6=Linguaruda
TTITLE7=Me Apaixonei por Ti
TTITLE8=Camisa Branca
TTITLE9=Vai
TTITLE10=Chovendo Paixão
TTITLE11=Arreia Cerveja
TTITLE12=Por Você
TTITLE13=Garça Branca do Araguaia
TTITLE14=Tocando em Frente
EXTD=
EXTT0=
EXTT1=
EXTT2=
EXTT3=
EXTT4=
EXTT5=
EXTT6=
EXTT7=
EXTT8=
EXTT9=
EXTT10=
EXTT11=
EXTT12=
EXTT13=
EXTT14=
PLAYORDER=
